<svg width="8" height="12" viewBox="0 0 8 12" fill="none" xmlns="http://www.w3.org/2000/svg">
<path d="M1.8125 0.568665V6.01029C1.76788 6.0221 1.71494 6.03916 1.67556 6.05098C1.46381 6.11616 1.31681 6.18441 1.21094 6.25616C1.16175 6.28795 1.11587 6.32459 1.074 6.36554C1.03988 6.40141 0.992188 6.47491 0.992188 6.47491L0.9375 6.57073V7.56866H1.375V11.0687H2.25V7.56866H5.75V11.0687H6.625V7.56866H7.0625V6.57073L7.00781 6.47491C7.00781 6.47491 6.95969 6.40141 6.92556 6.36554C6.88383 6.32461 6.8381 6.28797 6.78906 6.25616C6.68319 6.18441 6.53619 6.11616 6.324 6.05098C6.28463 6.03916 6.23212 6.0221 6.1875 6.01029V0.568665H5.3125V1.00616H2.6875V0.568665H1.8125ZM2.6875 1.88116H3.5625V5.83223C3.23088 5.84098 2.93338 5.84973 2.6875 5.87335V1.88116ZM4.4375 1.88116H5.3125V5.87335C5.06619 5.84929 4.76912 5.84098 4.4375 5.83223V1.88116Z" fill="black"/>
</svg>
