<svg width="18" height="18" viewBox="0 0 18 18" fill="none" xmlns="http://www.w3.org/2000/svg">
<path d="M7.91763 10.2654H2.04633C1.71363 10.2654 1.43494 10.1527 1.21026 9.92723C0.985586 9.70177 0.872857 9.42308 0.872074 9.09116C0.871292 8.75924 0.984021 8.48055 1.21026 8.25509C1.4365 8.02963 1.71519 7.9169 2.04633 7.9169H7.91763V2.0456C7.91763 1.71289 8.03036 1.4342 8.25582 1.20953C8.48128 0.984854 8.75997 0.872125 9.09189 0.871342C9.42382 0.870559 9.7029 0.983288 9.92914 1.20953C10.1554 1.43577 10.2677 1.71446 10.2662 2.0456V7.9169H16.1375C16.4702 7.9169 16.7492 8.02963 16.9747 8.25509C17.2002 8.48055 17.3125 8.75924 17.3117 9.09116C17.3109 9.42308 17.1982 9.70217 16.9735 9.92841C16.7488 10.1546 16.4702 10.267 16.1375 10.2654H10.2662V16.1367C10.2662 16.4694 10.1534 16.7485 9.92797 16.974C9.70251 17.1994 9.42382 17.3118 9.09189 17.311C8.75997 17.3102 8.48128 17.1975 8.25582 16.9728C8.03036 16.7481 7.91763 16.4694 7.91763 16.1367V10.2654Z" fill="black"/>
</svg>
