<svg width="24" height="24" viewBox="0 0 24 24" fill="none" xmlns="http://www.w3.org/2000/svg">
<rect x="0.5" y="0.5" width="23" height="23" rx="4.5" stroke="#101010" stroke-opacity="0.4"/>
<path d="M11.3571 12.5714H8.14286C7.96072 12.5714 7.80815 12.5166 7.68515 12.4069C7.56215 12.2971 7.50043 12.1615 7.5 12C7.49957 11.8385 7.56129 11.7029 7.68515 11.5931C7.809 11.4834 7.96157 11.4286 8.14286 11.4286H11.3571V8.57143C11.3571 8.40953 11.4189 8.27391 11.5423 8.16457C11.6657 8.05524 11.8183 8.00038 12 8C12.1817 7.99962 12.3345 8.05448 12.4584 8.16457C12.5822 8.27467 12.6437 8.41029 12.6429 8.57143V11.4286H15.8571C16.0393 11.4286 16.1921 11.4834 16.3155 11.5931C16.4389 11.7029 16.5004 11.8385 16.5 12C16.4996 12.1615 16.4379 12.2973 16.3149 12.4074C16.1919 12.5175 16.0393 12.5722 15.8571 12.5714H12.6429V15.4286C12.6429 15.5905 12.5811 15.7263 12.4577 15.836C12.3343 15.9457 12.1817 16.0004 12 16C11.8183 15.9996 11.6657 15.9448 11.5423 15.8354C11.4189 15.7261 11.3571 15.5905 11.3571 15.4286V12.5714Z" fill="black"/>
</svg>
